# xmcd
#
# Track frame offsets: 
#        150
#        19754
#        37936
#        51771
#        68285
#        90132
#        120854
#        137304
#        155306
#        171523
#
# Disc length: 2432 seconds
#
# Revision: 2
# Processed by: cddbd v1.5PL3 Copyright (c) Steve Scherf et al.
# Submitted via: ExactAudioCopy v0.95a5
#
DISCID=64097e0a
DTITLE=Vinicio Capossela - Modì
DYEAR=1991
DGENRE=
TTITLE0=Modì
TTITLE1=La regina del Florida
TTITLE2=Notte newyorkese
TTITLE3=25 aprile
TTITLE4=Solo per me
TTITLE5=Ultimo amore
TTITLE6=e allora mambo
TTITLE7=Pasionaria
TTITLE8=Cadillac
TTITLE9=Notte di provincia
EXTD=
EXTT0=
EXTT1=
EXTT2=
EXTT3=
EXTT4=
EXTT5=
EXTT6=
EXTT7=
EXTT8=
EXTT9=
PLAYORDER=
